# AST/ASF file generated using VICON BodyLanguage
# -----------------------------------------------
:version 1.10
:name VICON
:units
  mass 1.0
  length 0.45
  angle deg
:documentation
   .ast/.asf automatically generated from VICON data using
   VICON BodyBuilder and BodyLanguage model FoxedUp or BRILLIANT.MOD
:root
   order TX TY TZ RX RY RZ
   axis XYZ
   position 0 0 0  
   orientation 0 0 0 
:bonedata
  begin
     id 1 
     name lhipjoint
     direction 0.573633 -0.743009 0.344793 
     length 2.46257 
     axis 0 0 0  XYZ
  end
  begin
     id 2 
     name lfemur
     direction 0.34202 -0.939693 0  
     length 7.3842  
     axis 0 0 20  XYZ
    dof rx ry rz
    limits (-160.0 20.0)
           (-70.0 70.0)
           (-60.0 70.0)
  end
  begin
     id 3 
     name ltibia
     direction 0.34202 -0.939693 0   
     length 7.50407   
     axis 0 0 20   XYZ
    dof rx
    limits (-10.0 170.0)
  end
  begin
     id 4 
     name lfoot
     direction 0.110749 -0.304281 0.946123   
     length 1.95925   
     axis -90 7.62852e-016 20   XYZ
    dof rx rz
    limits (-45.0 90.0)
           (-70.0 20.0)
  end
  begin
     id 5 
     name ltoes
     direction 1.53554e-011 -4.21843e-011 1   
     length 0.978318   
     axis -90 7.62852e-016 20   XYZ
    dof rx
    limits (-90.0 20.0)
  end
  begin
     id 6 
     name rhipjoint
     direction -0.488109 -0.791693 0.367385   
     length 2.31113  
     axis 0 0 0  XYZ 
  end
  begin
     id 7 
     name rfemur
     direction -0.34202 -0.939693 0   
     length 7.40965   
     axis 0 0 -20   XYZ
    dof rx ry rz
    limits (-160.0 20.0)
           (-70.0 70.0)
           (-70.0 60.0)
  end
  begin
     id 8 
     name rtibia
     direction -0.34202 -0.939693 0   
     length 7.55548   
     axis 0 0 -20   XYZ
    dof rx
    limits (-10.0 170.0)
 end
 begin
     id 9 
     name rfoot
     direction -0.127594 -0.350561 0.927808   
     length 2.07199  
     axis -90 -7.62852e-016 -20   XYZ
    dof rx rz
    limits (-45.0 90.0)
           (-20.0 70.0)
  end
  begin
     id 10 
     name rtoes
     direction -1.53542e-011 -4.21909e-011 1   
     length 1.02667   
     axis -90 -7.62852e-016 -20   XYZ
    dof rx
    limits (-90.0 20.0)
  end
  begin
     id 11 
     name lowerback
     direction -0.0103342 0.997298 -0.0727278   
     length 2.02836   
     axis 0 0 0   XYZ
    dof rx ry rz
    limits (-20.0 45.0)
           (-30.0 30.0)
           (-30.0 30.0)
  end
  begin
     id 12 
     name upperback
     direction 0.0171146 0.999786 -0.011606   
     length 2.03179   
     axis 0 0 0   XYZ
    dof rx ry rz
    limits (-20.0 45.0)
           (-30.0 30.0)
           (-30.0 30.0)
  end
  begin
     id 13 
     name thorax
     direction 0.0216927 0.999513 0.0224343   
     length 2.03882   
     axis 0 0 0   XYZ
    dof rx ry rz
    limits (-20.0 45.0)
           (-30.0 30.0)
           (-30.0 30.0)
  end
  begin
     id 14 
     name lowerneck
     direction 0.000989287 0.993907 0.110221   
     length 1.75428   
     axis 0 0 0   XYZ
    dof rx ry rz
    limits (-20.0 45.0)
           (-30.0 30.0)
           (-30.0 30.0)
  end
  begin
     id 15 
     name upperneck
     direction -0.0172474 0.994813 -0.100253   
     length 1.77058   
     axis 0 0 0   XYZ
    dof rx ry rz
    limits (-20.0 45.0)
           (-30.0 30.0)
           (-30.0 30.0)
  end
  begin
     id 16
     name head
     direction -0.00486455 0.99894 -0.0457663  
     length 1.77427  
     axis 0 0 0   XYZ
    dof rx ry rz
    limits (-20.0 45.0)
           (-30.0 30.0)
           (-30.0 30.0)
  end
  begin
     id 17 
     name lclavicle
     direction 0.927314 0.333734 -0.169441  
     length 3.97584  
     axis 0 0 0   XYZ
    dof ry rz
    limits (-20.0 10.0)
           (0.0 20.0)
  end
  begin
     id 18 
     name lhumerus
     direction 1 -4.48965e-011 -3.25313e-028   
     length 4.76468   
     axis 180 -30 -90   XYZ
    dof rx ry rz
    limits (-60.0 90.0)
           (-90.0 90.0)
           (-90.0 90.0)
  end
  begin
     id 19
     name lradius
     direction 1 -4.48969e-011 -2.8465e-028   
     length 3.52712   
     axis -180 -30 -90   XYZ
    dof rx
    limits (-10.0 170.0)
  end
  begin
     id 20
     name lwrist
     direction 1 -4.4896e-011 -7.78665e-028   
     length 1.76356   
     axis 1.91374e-015 90 90   XYZ
    dof ry
    limits (-180.0 0.0)
 end
  begin
     id 21 
     name lhand
     direction 1 -4.48959e-011 -1.55733e-027   
     length 0.859564   
     axis 9.9371e-016 90 90   XYZ
    dof rx rz
    limits (-90.0 90.0)
           (-45.0 45.0)
  end
  begin
     id 22 
     name lfingers
     direction 1 -4.48965e-011 -3.11466e-027   
     length 0.693002   
     axis 1.98742e-015 90 90   XYZ
    dof rx
    limits (0.0 90.0)
  end
  begin
     id 23
     name lthumb
     direction 0.707107 -6.34948e-011 0.707107   
     length 0.995017   
     axis -90 45 2.85299e-015   XYZ
    dof rx rz
    limits (-45.0 45.0)
           (-45.0 45.0)
  end
  begin
     id 24 
     name rclavicle
     direction -0.899388 0.348209 -0.264294   
     length 3.68366  
     axis 0 0 0   XYZ 
    dof ry rz
    limits (-10.0 20.0)
           (-20.0 0.0)
  end
  begin
     id 25 
     name rhumerus
     direction -1 -4.48965e-011 -3.01536e-027  
     length 4.90577   
     axis 180 30 90   XYZ
    dof rx ry rz
    limits (-90.0 60.0)
           (-90.0 90.0)
           (-90.0 90.0)
  end
  begin
     id 26 
     name rradius
     direction -1 -4.48966e-011 3.93291e-027   
     length 3.42692   
     axis -180 30 90   XYZ
    dof rx
    limits (-10.0 170.0)
  end
  begin
     id 27 
     name rwrist
     direction -1 -4.48969e-011 -7.78665e-028   
     length 1.71346   
     axis 1.91374e-015 -90 -90   XYZ
    dof ry
    limits (-180.0 0.0)
  end
  begin
     id 28
     name rhand
     direction -1 -4.48967e-011 -1.55733e-027   
     length 0.740957   
     axis 9.9371e-016 -90 -90   XYZ
    dof rx rz
    limits (-90.0 90.0)
           (-45.0 45.0)
  end
  begin
     id 29
     name rfingers
     direction -1 -4.48949e-011 -3.11466e-027   
     length 0.597378   
     axis 1.98742e-015 -90 -90   XYZ
    dof rx
    limits (0.0 90.0)
  end
  begin
     id 30
     name rthumb
     direction -0.707107 -6.34931e-011 0.707107   
     length 0.857719   
     axis -90 -45 -2.85299e-015   XYZ
    dof rx rz
    limits (-45.0 45.0)
           (-45.0 45.0)
  end
:hierarchy
  begin
    root lhipjoint rhipjoint lowerback
    lhipjoint lfemur
    lfemur ltibia
    ltibia lfoot
    lfoot ltoes
    rhipjoint rfemur
    rfemur rtibia
    rtibia rfoot
    rfoot rtoes
    lowerback upperback
    upperback thorax
    thorax lowerneck lclavicle rclavicle
    lowerneck upperneck
    upperneck head
    lclavicle lhumerus
    lhumerus lradius
    lradius lwrist
    lwrist lhand lthumb
    lhand lfingers
    rclavicle rhumerus
    rhumerus rradius
    rradius rwrist
    rwrist rhand rthumb
    rhand rfingers
  end

#!OML:ASF I:\AllaLogoMonkeySwing\Project 1\Capture day 1\Session 1\Subject1.ASF
:FULLY-SPECIFIED
:DEGREES
171
root -0.35972 17.8217 7.93945 4.87692 2.60978 -1.96665
lowerback 10.0313 0.969176 -0.802054
upperback 0.17276 1.3332 2.39897
thorax -5.52864 0.710909 2.76784
lowerneck -17.7871 -0.0193463 -1.11944
upperneck 16.4364 0.0815581 0.955273
head 8.01718 0.0661974 0.511772
rclavicle 2.3556e-014 6.75868e-015
rhumerus -47.3863 10.3352 -86.787
rradius 70.4322
rwrist -6.77187
rhand -15.8339 -30.8244
rfingers 7.12502
rthumb 10.3604 -60.5492
lclavicle 2.3556e-014 6.75868e-015
lhumerus -55.7402 1.9244 88.575
lradius 71.5724
lwrist 8.72331
lhand -20.4184 -31.434
lfingers 7.12502
lthumb 5.93585 -1.53714
rfemur -3.74687 0.129415 7.39624
rtibia 39.8307
rfoot 2.73731 -7.07575
rtoes -13.2956
lfemur -4.66098 -9.58414 -4.96007
ltibia 37.218
lfoot -0.275923 -6.28624
ltoes -50.4214
172
root -0.346291 18.2788 8.30698 3.85234 3.01878 -2.02915
lowerback 9.16981 0.83594 -0.50324
upperback 0.481367 1.17352 2.30833
thorax -4.70392 0.615505 2.53395
lowerneck -17.7415 -0.080361 -1.06006
upperneck 17.4057 0.0489901 0.617096
head 8.33541 0.0180277 0.387712
rclavicle 1.59028e-015 -2.3059e-014
rhumerus -47.5193 9.19456 -86.2545
rradius 69.5138
rwrist -7.66691
rhand -16.1099 -32.0912
rfingers 7.12502
rthumb 10.0941 -61.8291
lclavicle 1.59028e-015 -2.3059e-014
lhumerus -56.3566 4.34725 86.6773
lradius 71.3532
lwrist 9.61037
lhand -21.1897 -29.3409
lfingers 7.12502
lthumb 5.19115 0.57552
rfemur -3.58451 0.818755 7.99944
rtibia 40.9193
rfoot 10.0115 -4.81593
rtoes 4.17649
lfemur -4.37651 -11.3385 -5.77205
ltibia 37.6764
lfoot 6.56902 -9.18322
ltoes -48.7526
173
root -0.337203 18.672 8.63759 2.80564 3.47643 -2.23488
lowerback 8.82334 0.763331 -0.269225
upperback 0.762106 1.09465 2.35464
thorax -4.20964 0.567481 2.46341
lowerneck -17.1993 -0.1441 -1.45202
upperneck 17.748 -0.00970303 0.944424
head 8.35537 -0.00301328 0.555429
rclavicle -1.28713e-014 -3.02153e-014
rhumerus -47.7212 7.97621 -85.5321
rradius 68.4923
rwrist -9.10308
rhand -15.4917 -34.0461
rfingers 7.12502
rthumb 10.6905 -63.7541
lclavicle -1.28713e-014 -3.02153e-014
lhumerus -56.6931 6.7338 84.9477
lradius 70.8286
lwrist 10.9181
lhand -22.151 -27.8296
lfingers 7.12502
lthumb 4.26298 2.10747
rfemur -3.52916 1.0832 8.83169
rtibia 42.6379
rfoot 11.2803 0.400165
rtoes 5.87522
lfemur -4.5572 -12.6142 -6.39839
ltibia 38.6623
lfoot 11.852 -12.3105
ltoes -40.555
174
root -0.331223 19.0037 8.9426 1.82263 3.95686 -2.28737
lowerback 8.66755 0.744176 -0.28905
upperback 1.09698 1.06074 2.38539
thorax -3.77364 0.546653 2.51257
lowerneck -16.7276 -0.23652 -1.55572
upperneck 18.1169 -0.101913 0.873263
head 8.39732 -0.0625518 0.538235
rclavicle -6.5102e-015 3.06128e-014
rhumerus -47.5105 6.39288 -84.693
rradius 67.3711
rwrist -10.547
rhand -15.787 -34.9252
rfingers 7.12502
rthumb 10.4057 -64.6477
lclavicle -6.5102e-015 3.06128e-014
lhumerus -56.8227 8.90622 83.4315
lradius 70.1378
lwrist 12.5684
lhand -23.0825 -26.8358
lfingers 7.12502
lthumb 3.36348 3.11746
rfemur -3.76758 0.679401 9.60271
rtibia 44.2507
rfoot 10.1891 1.31242
rtoes 2.52209
lfemur -4.98138 -13.4786 -7.21937
ltibia 39.7748
lfoot 14.1295 -14.6254
ltoes -35.6148
175
root -0.328277 19.2857 9.2411 0.890683 4.44389 -2.09163
lowerback 8.82086 0.787027 -0.534651
upperback 1.3379 1.08872 2.31296
thorax -3.61322 0.560847 2.57187
lowerneck -16.2414 -0.40537 -1.79822
upperneck 18.6527 -0.315452 1.03564
head 8.49501 -0.165065 0.608865
rclavicle 1.18774e-014 2.74323e-014
rhumerus -47.4451 4.60574 -83.8774
rradius 65.9422
rwrist -11.2381
rhand -16.3433 -35.2857
rfingers 7.12502
rthumb 9.869 -65.0344
lclavicle 1.18774e-014 2.74323e-014
lhumerus -57.0528 10.6559 82.1277
lradius 69.481
lwrist 14.3549
lhand -24.0613 -26.315
lfingers 7.12502
lthumb 2.41818 3.65106
rfemur -4.17648 -0.29363 10.2244
rtibia 45.44
rfoot 8.88585 0.0666533
rtoes 4.84813
lfemur -5.399 -13.8803 -8.38512
ltibia 40.5682
lfoot 11.3951 -13.9508
ltoes -36.9307
176
root -0.328424 19.5202 9.53819 0.0203864 4.92374 -1.9117
lowerback 9.1705 0.841069 -0.737947
upperback 1.52744 1.13652 2.22437
thorax -3.61536 0.585277 2.58621
lowerneck -15.9498 -0.600839 -2.40442
upperneck 19.4016 -0.597694 1.75878
head 8.70494 -0.267183 0.922878
rclavicle 1.18277e-014 1.90833e-014
rhumerus -47.2521 2.86268 -83.1164
rradius 64.3691
rwrist -11.3979
rhand -17.2324 -35.9182
rfingers 7.12502
rthumb 9.01108 -65.7058
lclavicle 1.18277e-014 1.90833e-014
lhumerus -57.2637 12.1745 80.9589
lradius 68.8348
lwrist 15.7212
lhand -24.9611 -25.8326
lfingers 7.12502
lthumb 1.54913 4.14157
rfemur -4.62375 -1.17887 10.9837
rtibia 45.8406
rfoot 6.20924 -2.83694
rtoes 5.71638
lfemur -5.8529 -13.8313 -9.56848
ltibia 40.8301
lfoot 8.006 -13.2534
ltoes -35.2822
177
root -0.328568 19.7221 9.83349 -0.647168 5.35307 -1.82138
lowerback 9.51355 0.872932 -0.861791
upperback 1.6646 1.16282 2.14978
thorax -3.66567 0.59879 2.57249
lowerneck -15.4774 -0.73155 -2.29029
upperneck 19.686 -0.766271 1.52043
head 8.7188 -0.36519 0.804371
rclavicle -4.91992e-015 -2.06736e-014
rhumerus -46.8762 1.33508 -82.4437
rradius 62.6409
rwrist -11.6412
rhand -17.9905 -36.4496
rfingers 7.12502
rthumb 8.27948 -66.2673
lclavicle -4.91992e-015 -2.06736e-014
lhumerus -57.4141 13.5832 79.8803
lradius 68.1535
lwrist 16.4733
lhand -25.5455 -25.4716
lfingers 7.12502
lthumb 0.984673 4.5059
rfemur -5.18383 -2.06182 11.9021
rtibia 45.6846
rfoot 3.58725 -6.02378
rtoes 7.36091
lfemur -6.47805 -13.4517 -10.6384
ltibia 40.5946
lfoot 5.22859 -12.1717
ltoes -32.7165
